<svg width="40" height="40" viewBox="0 0 40 40" fill="none" xmlns="http://www.w3.org/2000/svg">
<path d="M37.4994 4.35167C37.3002 4.17965 37.0578 4.06525 36.7984 4.02079C36.539 3.97633 36.2723 4.00349 36.0272 4.09935L3.45709 16.8455C2.9955 17.025 2.60471 17.3496 2.34355 17.7704C2.0824 18.1912 1.96501 18.6855 2.00906 19.1788C2.05312 19.6721 2.25623 20.1377 2.58782 20.5056C2.91941 20.8735 3.36153 21.1237 3.84763 21.2185L12.2867 22.8755V32.2852C12.285 32.7978 12.4373 33.299 12.7239 33.724C13.0104 34.1489 13.418 34.478 13.8938 34.6686C14.3689 34.8626 14.8913 34.9092 15.3932 34.8022C15.895 34.6953 16.3531 34.4399 16.7079 34.0691L20.7772 29.8488L27.233 35.4995C27.6988 35.9126 28.2995 36.1413 28.9221 36.1423C29.1949 36.1421 29.4661 36.0993 29.7257 36.0154C30.1499 35.8808 30.5314 35.6374 30.8323 35.3095C31.1331 34.9815 31.3428 34.5805 31.4405 34.1463L37.9638 5.76755C38.0222 5.51161 38.0098 5.24462 37.9279 4.99519C37.8461 4.74577 37.698 4.52331 37.4994 4.35167ZM27.6734 10.1373L13.2751 20.4487L5.30369 18.885L27.6734 10.1373ZM14.8581 32.2852V24.6546L18.8422 28.1485L14.8581 32.2852ZM28.9253 33.5709L15.6375 21.9192L34.7624 8.212L28.9253 33.5709Z" fill="#FFFDF8"/>
</svg>
