<svg width="40" height="40" viewBox="0 0 40 40" fill="none" xmlns="http://www.w3.org/2000/svg">
<path d="M33.5702 5.50161C32.6399 4.68498 28.8718 2.05979 20.4802 2.02533C20.4802 2.02533 10.5783 1.45744 5.75478 5.69939C3.07174 8.27064 2.13205 12.0361 2.02417 16.7066C1.91628 21.3771 1.79589 30.1307 10.6002 32.5102H10.608L10.6002 36.1348C10.6002 36.1348 10.5423 37.6032 11.5493 37.8984C12.7657 38.264 13.4849 37.1462 14.6498 35.9445C15.2877 35.2837 16.1664 34.3157 16.834 33.577C20.66 33.9166 24.5184 33.6345 28.2463 32.7424L28.0118 32.7904C29.2282 32.4113 36.111 31.5677 37.2242 22.8156C38.3875 13.7802 36.6707 8.08034 33.5702 5.50161ZM34.5896 22.1563C33.6406 29.4609 28.065 29.9254 27.0393 30.2401C24.8003 30.7855 22.2298 31.0972 19.5827 31.0972C18.8229 31.0972 18.0692 31.0717 17.3234 31.0208L17.4235 31.0268C17.4235 31.0268 13.6116 35.4305 12.4248 36.5753C12.0371 36.9469 11.6102 36.9169 11.6181 36.1752C11.6181 35.6913 11.6478 30.1547 11.6478 30.1547C4.19436 28.1738 4.6259 20.7178 4.71346 16.8235C4.80102 12.9291 5.56403 9.72858 7.83585 7.57988C11.9198 4.03318 20.327 4.55912 20.327 4.55912C27.4302 4.58759 30.8309 6.63889 31.622 7.32665C34.2394 9.47685 35.5731 14.6208 34.5896 22.1563ZM24.4094 16.4803V16.5013C24.4061 16.618 24.3562 16.729 24.27 16.8115C24.1837 16.8939 24.0678 16.9415 23.946 16.9444C23.8242 16.9472 23.706 16.9052 23.6156 16.827C23.5252 16.7487 23.4696 16.6402 23.4603 16.5238C23.4922 16.211 23.4528 15.8937 23.3449 15.5969C23.237 15.3 23.0632 15.0292 22.8355 14.8029C22.6078 14.5767 22.3316 14.4006 22.0259 14.2866C21.7202 14.1726 21.3924 14.1236 21.065 14.1428H21.0712C20.9497 14.1338 20.8365 14.0804 20.7549 13.9937C20.6733 13.9069 20.6296 13.7934 20.6328 13.6767C20.636 13.5599 20.6859 13.4488 20.7721 13.3663C20.8584 13.2838 20.9744 13.2362 21.0963 13.2333H21.1228H21.1213L21.2292 13.2318C21.6657 13.2317 22.0976 13.3175 22.498 13.4841C22.8985 13.6506 23.2589 13.8942 23.557 14.1998C23.8551 14.5054 24.0844 14.8665 24.2308 15.2606C24.3771 15.6547 24.4374 16.0735 24.4078 16.4908V16.4818L24.4094 16.4803ZM25.8963 17.276C25.9698 14.2972 24.0279 11.9657 20.3411 11.705C20.2771 11.703 20.2142 11.6888 20.1561 11.663C20.098 11.6372 20.046 11.6004 20.0031 11.5549C19.9602 11.5094 19.9274 11.456 19.9065 11.398C19.8857 11.34 19.8773 11.2786 19.8818 11.2174C19.8863 11.1562 19.9037 11.0966 19.9329 11.042C19.9621 10.9874 20.0024 10.939 20.0516 10.8997C20.1008 10.8605 20.1577 10.8311 20.219 10.8135C20.2803 10.7958 20.3447 10.7902 20.4083 10.7969H20.4067H20.4333C21.3083 10.7969 22.174 10.9683 22.9773 11.3005C23.7807 11.6328 24.5047 12.1189 25.1049 12.729C25.7051 13.3391 26.1688 14.0604 26.4676 14.8485C26.7663 15.6366 26.8938 16.4749 26.8423 17.312L26.8438 17.2955C26.8355 17.4116 26.781 17.5203 26.6917 17.5991C26.6023 17.678 26.4848 17.7211 26.3634 17.7195C26.2419 17.718 26.1257 17.672 26.0385 17.5909C25.9514 17.5098 25.8999 17.3998 25.8948 17.2835V17.2715L25.8963 17.276ZM29.3361 18.2185V18.2215C29.3298 18.3376 29.2773 18.4471 29.1895 18.5273C29.1017 18.6076 28.9852 18.6526 28.8638 18.6532C28.7424 18.6538 28.6254 18.6099 28.5368 18.5304C28.4482 18.451 28.3946 18.3421 28.3871 18.226C28.3495 12.4991 24.3641 9.38095 19.5343 9.34798C19.4721 9.34798 19.4105 9.33624 19.353 9.31343C19.2955 9.29061 19.2433 9.25717 19.1993 9.21501C19.1553 9.17285 19.1204 9.1228 19.0966 9.06772C19.0728 9.01263 19.0605 8.95359 19.0605 8.89397C19.0605 8.83435 19.0728 8.77531 19.0966 8.72023C19.1204 8.66514 19.1553 8.61509 19.1993 8.57294C19.2433 8.53078 19.2955 8.49733 19.353 8.47452C19.4105 8.4517 19.4721 8.43996 19.5343 8.43996C24.9426 8.47592 29.2892 12.0526 29.333 18.217L29.3361 18.2185ZM28.5153 25.1081V25.1216C27.7241 26.4567 26.2434 27.9311 24.719 27.4606L24.7049 27.4396C21.987 26.4811 19.4393 25.1272 17.1514 23.4254L17.2155 23.4704C16.0771 22.6041 15.0444 21.6174 14.1369 20.529L14.1072 20.4915C13.2856 19.5004 12.5523 18.4448 11.9151 17.3359L11.8526 17.2176C11.0987 16.0265 10.4737 14.7648 9.98729 13.4521L9.94038 13.3052C9.44943 11.8443 10.9801 10.4253 12.3811 9.66714H12.3951C12.6708 9.49807 13.0017 9.43226 13.3248 9.48229C13.6478 9.53232 13.9403 9.69469 14.1463 9.93835L14.1479 9.94135C14.1479 9.94135 15.0563 10.9797 15.4456 11.4937C15.8115 11.9717 16.304 12.7374 16.5589 13.1644C16.7507 13.4562 16.8288 13.8036 16.7793 14.1452C16.7298 14.4869 16.5559 14.8007 16.2884 15.0314L16.2868 15.0329L15.4081 15.7072C15.2711 15.8339 15.1652 15.9882 15.0981 16.159C15.0311 16.3298 15.0045 16.5128 15.0203 16.6946V16.6901C15.4554 18.0796 16.2407 19.3451 17.3069 20.375C18.3731 21.4048 19.6873 22.1674 21.1338 22.5953L21.1994 22.6118C21.3883 22.626 21.5781 22.6003 21.7553 22.5363C21.9326 22.4723 22.093 22.3717 22.2251 22.2417L22.9287 21.3996C23.1704 21.142 23.4996 20.9749 23.8577 20.928C24.2159 20.8811 24.5798 20.9574 24.8847 21.1433L24.8785 21.1404C26.1496 21.8341 27.2488 22.5968 28.251 23.4614L28.2338 23.4464C28.4881 23.6407 28.6573 23.919 28.7082 24.2268C28.7591 24.5346 28.6881 24.8495 28.509 25.1096L28.5121 25.1051L28.5153 25.1081Z" fill="#FFFDF8"/>
</svg>
