<svg xmlns="http://www.w3.org/2000/svg" aria-hidden="true" style="position:absolute;width:0;height:0;overflow:hidden">
    <svg xmlns="http://www.w3.org/2000/svg">
        <defs>
            <symbol id="icon-instagram" viewBox="0 0 32 32">
                <path
                    d="M16 2.881c4.275 0 4.781.019 6.462.094 1.563.069 2.406.331 2.969.55a4.952 4.952 0 0 1 1.837 1.194 5.015 5.015 0 0 1 1.2 1.838c.219.563.481 1.412.55 2.969.075 1.688.094 2.194.094 6.463s-.019 4.781-.094 6.463c-.069 1.563-.331 2.406-.55 2.969a4.94 4.94 0 0 1-1.194 1.837 5.02 5.02 0 0 1-1.837 1.2c-.563.219-1.413.481-2.969.55-1.688.075-2.194.094-6.463.094s-4.781-.019-6.463-.094c-1.563-.069-2.406-.331-2.969-.55a4.952 4.952 0 0 1-1.838-1.194 5.02 5.02 0 0 1-1.2-1.837c-.219-.563-.481-1.413-.55-2.969-.075-1.688-.094-2.194-.094-6.463s.019-4.781.094-6.463c.069-1.563.331-2.406.55-2.969a4.964 4.964 0 0 1 1.194-1.838 5.015 5.015 0 0 1 1.838-1.2c.563-.219 1.412-.481 2.969-.55 1.681-.075 2.188-.094 6.463-.094zM16 0c-4.344 0-4.887.019-6.594.094-1.7.075-2.869.35-3.881.744-1.056.412-1.95.956-2.837 1.85a7.833 7.833 0 0 0-1.85 2.831C.444 6.538.169 7.7.094 9.4.019 11.113 0 11.656 0 16s.019 4.887.094 6.594c.075 1.7.35 2.869.744 3.881.413 1.056.956 1.95 1.85 2.837a7.82 7.82 0 0 0 2.831 1.844c1.019.394 2.181.669 3.881.744 1.706.075 2.25.094 6.594.094s4.888-.019 6.594-.094c1.7-.075 2.869-.35 3.881-.744 1.05-.406 1.944-.956 2.831-1.844s1.438-1.781 1.844-2.831c.394-1.019.669-2.181.744-3.881.075-1.706.094-2.25.094-6.594s-.019-4.887-.094-6.594c-.075-1.7-.35-2.869-.744-3.881a7.506 7.506 0 0 0-1.831-2.844A7.82 7.82 0 0 0 26.482.843C25.463.449 24.301.174 22.601.099c-1.712-.081-2.256-.1-6.6-.1z" />
                <path
                    d="M16 7.781c-4.537 0-8.219 3.681-8.219 8.219s3.681 8.219 8.219 8.219 8.219-3.681 8.219-8.219A8.221 8.221 0 0 0 16 7.781zm0 13.55a5.331 5.331 0 1 1 0-10.663 5.331 5.331 0 0 1 0 10.663zM26.462 7.456a1.919 1.919 0 1 1-3.838 0 1.919 1.919 0 0 1 3.838 0z" />
            </symbol>

            <symbol id="icon-close-1" viewBox="0 0 32 32">
                <path
                    d="M32 3.223l-3.223-3.223-12.777 12.777-12.777-12.777-3.223 3.223 12.777 12.777-12.777 12.777 3.223 3.223 12.777-12.777 12.777 12.777 3.223-3.223-12.777-12.777 12.777-12.777z">
                </path>
            </symbol>
            <!-- <symbol id="icon-telegram-2" viewBox="0 0 32 32">
                <path
                    d="m32 2.667-32 15 10.227 3.156L26 8.5 14.002 21.988l.01.003-.012-.003v7.345l5.735-5.576L27 25.999l5-23.333z" />
            </symbol> -->


            <symbol id="icon-close-2" viewBox="0 0 32 32">
                <path stroke-width="1.333"
                    d="M31.333 16c0 8.468-6.865 15.333-15.333 15.333S.667 24.468.667 16 7.532.667 16 .667 31.333 7.532 31.333 16z" />
                <path
                    d="m21.333 11.741-1.074-1.074L16 14.926l-4.259-4.259-1.074 1.074L14.926 16l-4.259 4.259 1.074 1.074L16 17.074l4.259 4.259 1.074-1.074L17.074 16l4.259-4.259z" />
            </symbol>

            <symbol id="icon-tag-price" viewBox="0 0 33 32">
                <path stroke-linejoin="miter" stroke-linecap="butt" stroke-miterlimit="4" stroke-width="1"
                    d="M6.637 21.516c-2.060-2.061-3.091-3.091-3.473-4.428-0.384-1.337-0.056-2.757 0.6-5.596l0.377-1.637c0.551-2.389 0.827-3.584 1.644-4.403 0.819-0.817 2.013-1.093 4.403-1.644l1.637-0.379c2.84-0.655 4.259-0.983 5.596-0.6 1.337 0.384 2.367 1.415 4.427 3.475l2.44 2.44c3.588 3.587 5.379 5.379 5.379 7.605 0 2.228-1.793 4.020-5.379 7.605-3.585 3.588-5.377 5.379-7.605 5.379-2.227 0-4.020-1.793-7.605-5.379l-2.44-2.439z">
                </path>
                <path stroke-linejoin="miter" stroke-linecap="round" stroke-miterlimit="4" stroke-width="1"
                    d="M20.854 20.52c0.78-0.783 0.885-1.943 0.235-2.595-0.651-0.651-1.812-0.545-2.593 0.236-0.78 0.781-1.941 0.887-2.592 0.236s-0.545-1.812 0.236-2.592M16.139 15.805l-0.472-0.472M16.139 15.805c0.441-0.443 1.004-0.667 1.528-0.663M21.324 20.991l-0.472-0.472c-0.533 0.535-1.247 0.753-1.852 0.628">
                </path>
                <path stroke-linejoin="miter" stroke-linecap="butt" stroke-miterlimit="4" stroke-width="1"
                    d="M13.695 13.724c1.041-1.041 1.041-2.73 0-3.771s-2.73-1.041-3.771 0c-1.041 1.041-1.041 2.73 0 3.771s2.73 1.041 3.771 0z">
                </path>
            </symbol>

            <symbol id="icon-discount" viewBox="0 0 33 32">
                <path
                    d="M29.604 16c0 0.788-0.461 1.499-1.119 2.147-0.393 0.387-0.852 0.757-1.256 1.133-0.323 0.3-0.613 0.595-0.749 0.923-0.143 0.343-0.152 0.768-0.14 1.217 0.015 0.555 0.075 1.14 0.079 1.687 0.008 0.921-0.164 1.739-0.701 2.277-0.539 0.537-1.356 0.709-2.277 0.701-0.547-0.005-1.132-0.064-1.685-0.079-0.449-0.012-0.876-0.003-1.219 0.14-0.328 0.136-0.623 0.427-0.923 0.749-0.376 0.404-0.747 0.863-1.133 1.255-0.648 0.659-1.359 1.12-2.147 1.12s-1.499-0.461-2.147-1.12c-0.387-0.392-0.757-0.851-1.133-1.255-0.3-0.323-0.596-0.613-0.923-0.749-0.343-0.143-0.769-0.152-1.217-0.14-0.555 0.015-1.14 0.073-1.687 0.079-0.921 0.008-1.74-0.164-2.277-0.701-0.539-0.539-0.709-1.356-0.701-2.277 0.004-0.547 0.064-1.132 0.079-1.687 0.012-0.449 0.003-0.875-0.14-1.219-0.136-0.327-0.427-0.621-0.749-0.921-0.403-0.376-0.861-0.747-1.255-1.133-0.657-0.648-1.12-1.359-1.12-2.147s0.463-1.499 1.12-2.147c0.393-0.387 0.852-0.757 1.255-1.133 0.323-0.3 0.613-0.595 0.749-0.921 0.143-0.344 0.152-0.769 0.14-1.219-0.015-0.555-0.075-1.14-0.079-1.687-0.008-0.921 0.163-1.739 0.701-2.277 0.537-0.537 1.356-0.709 2.277-0.701 0.547 0.005 1.132 0.064 1.687 0.079 0.448 0.012 0.875 0.003 1.217-0.14 0.327-0.136 0.623-0.427 0.923-0.749 0.376-0.404 0.747-0.863 1.133-1.255 0.648-0.659 1.359-1.12 2.147-1.12s1.499 0.461 2.147 1.12c0.387 0.392 0.757 0.851 1.133 1.255 0.3 0.323 0.595 0.613 0.923 0.749 0.343 0.143 0.769 0.152 1.219 0.14 0.553-0.015 1.139-0.073 1.685-0.079 0.921-0.008 1.739 0.164 2.277 0.701 0.537 0.539 0.709 1.356 0.701 2.277-0.004 0.547-0.064 1.132-0.079 1.687-0.012 0.449-0.003 0.875 0.14 1.217 0.136 0.328 0.427 0.623 0.749 0.923 0.404 0.376 0.863 0.747 1.256 1.133 0.657 0.648 1.119 1.359 1.119 2.147zM28.271 16c0-0.251-0.117-0.473-0.275-0.691-0.219-0.301-0.517-0.583-0.829-0.861-0.777-0.695-1.607-1.387-1.919-2.139-0.323-0.78-0.236-1.865-0.181-2.904 0.023-0.42 0.036-0.829-0.020-1.193-0.039-0.255-0.107-0.487-0.272-0.652-0.167-0.167-0.399-0.235-0.653-0.273-0.364-0.056-0.773-0.043-1.193-0.020-1.039 0.055-2.124 0.141-2.903-0.181-0.753-0.312-1.445-1.14-2.14-1.919-0.279-0.312-0.56-0.611-0.861-0.829-0.217-0.157-0.44-0.275-0.691-0.275-0.249 0-0.473 0.117-0.691 0.275-0.301 0.219-0.583 0.517-0.861 0.829-0.695 0.779-1.387 1.607-2.14 1.919-0.779 0.323-1.864 0.236-2.903 0.181-0.42-0.023-0.829-0.036-1.193 0.020-0.256 0.039-0.487 0.107-0.653 0.273-0.167 0.165-0.233 0.397-0.272 0.652-0.056 0.364-0.043 0.773-0.021 1.193 0.056 1.039 0.143 2.124-0.18 2.903-0.312 0.753-1.14 1.445-1.919 2.14-0.312 0.279-0.611 0.56-0.829 0.861-0.157 0.217-0.275 0.44-0.275 0.691s0.117 0.473 0.275 0.691c0.219 0.301 0.517 0.583 0.829 0.861 0.779 0.695 1.607 1.387 1.919 2.14 0.323 0.779 0.236 1.864 0.18 2.903-0.021 0.42-0.035 0.829 0.021 1.193 0.039 0.255 0.105 0.487 0.272 0.652 0.167 0.167 0.397 0.235 0.653 0.273 0.364 0.056 0.773 0.043 1.193 0.020 1.039-0.055 2.124-0.141 2.903 0.181 0.753 0.312 1.445 1.14 2.14 1.919 0.279 0.312 0.56 0.611 0.861 0.829 0.217 0.157 0.441 0.275 0.691 0.275 0.251 0 0.473-0.117 0.691-0.275 0.301-0.219 0.583-0.517 0.861-0.829 0.695-0.779 1.387-1.607 2.14-1.919 0.779-0.323 1.864-0.236 2.903-0.181 0.42 0.023 0.829 0.036 1.193-0.020 0.255-0.039 0.487-0.107 0.653-0.273 0.165-0.165 0.233-0.397 0.272-0.652 0.056-0.364 0.043-0.773 0.020-1.193-0.055-1.039-0.141-2.124 0.181-2.904 0.312-0.752 1.141-1.444 1.919-2.139 0.312-0.279 0.611-0.56 0.829-0.861 0.157-0.217 0.275-0.44 0.275-0.691zM14.229 13.651c-0.126 0.126-0.275 0.225-0.439 0.293s-0.34 0.103-0.518 0.103-0.354-0.035-0.518-0.103c-0.164-0.068-0.313-0.168-0.439-0.294s-0.225-0.275-0.293-0.439c-0.068-0.164-0.103-0.34-0.103-0.518s0.035-0.354 0.103-0.518c0.068-0.164 0.168-0.313 0.294-0.439 0.254-0.254 0.598-0.396 0.957-0.396s0.703 0.143 0.957 0.397c0.254 0.254 0.396 0.598 0.396 0.957s-0.143 0.703-0.397 0.957zM20.191 11.2c0.126-0.121 0.294-0.189 0.469-0.187s0.342 0.072 0.466 0.195c0.124 0.124 0.194 0.291 0.195 0.466s-0.066 0.343-0.187 0.469l-8.657 8.657c-0.126 0.121-0.294 0.189-0.469 0.187s-0.342-0.072-0.466-0.195-0.194-0.291-0.195-0.466c-0.002-0.175 0.066-0.343 0.187-0.469l8.657-8.657zM18.437 18.351c0.126-0.126 0.275-0.225 0.439-0.293s0.34-0.103 0.518-0.103 0.354 0.035 0.518 0.103c0.164 0.068 0.313 0.168 0.439 0.294s0.225 0.275 0.293 0.439c0.068 0.164 0.103 0.34 0.103 0.518s-0.035 0.354-0.103 0.518c-0.068 0.164-0.168 0.313-0.294 0.439-0.254 0.254-0.598 0.396-0.957 0.396s-0.703-0.143-0.957-0.397c-0.254-0.254-0.396-0.598-0.396-0.957s0.143-0.703 0.397-0.957z">
                </path>
            </symbol>

            <symbol id="icon-attention" viewBox="0 0 33 32">
                <path fill="none" stroke="#121211" style="stroke: var(--color1, #121211)" stroke-linejoin="miter"
                    stroke-linecap="round" stroke-miterlimit="4" stroke-width="1" d="M16.333 9.333v8"></path>
                <path
                    d="M16.333 22.667c0.736 0 1.333-0.597 1.333-1.333s-0.597-1.333-1.333-1.333c-0.736 0-1.333 0.597-1.333 1.333s0.597 1.333 1.333 1.333z">
                </path>
                <path fill="none" stroke="#121211" style="stroke: var(--color1, #121211)" stroke-linejoin="miter"
                    stroke-linecap="butt" stroke-miterlimit="4" stroke-width="1"
                    d="M10.791 5.069c2.705-1.601 4.057-2.403 5.543-2.403s2.837 0.8 5.543 2.403l0.915 0.541c2.705 1.603 4.057 2.404 4.8 3.723 0.743 1.32 0.743 2.92 0.743 6.125v1.083c0 3.204 0 4.807-0.743 6.125-0.743 1.32-2.095 2.12-4.8 3.721l-0.915 0.543c-2.705 1.601-4.057 2.403-5.543 2.403s-2.837-0.8-5.543-2.403l-0.915-0.543c-2.705-1.6-4.057-2.403-4.8-3.721-0.743-1.32-0.743-2.92-0.743-6.125v-1.083c0-3.205 0-4.807 0.743-6.125 0.743-1.32 2.095-2.12 4.8-3.723l0.915-0.541z">
                </path>
            </symbol>

            <symbol id="icon-viber" viewBox="0 0 32 32">
                <path
                    d="M26.856 4.401c-0.744-0.653-3.759-2.753-10.472-2.781 0 0-7.922-0.454-11.78 2.939-2.146 2.057-2.898 5.069-2.985 8.806s-0.183 10.739 6.861 12.643h0.006l-0.006 2.9c0 0-0.046 1.175 0.759 1.411 0.973 0.292 1.548-0.602 2.48-1.563 0.51-0.529 1.213-1.303 1.747-1.894 3.061 0.272 6.148 0.046 9.13-0.668l-0.188 0.038c0.973-0.303 6.479-0.978 7.37-7.98 0.931-7.228-0.443-11.788-2.923-13.851zM27.672 17.725c-0.759 5.844-5.22 6.215-6.040 6.467-1.791 0.436-3.848 0.686-5.965 0.686-0.608 0-1.211-0.020-1.807-0.061l0.080 0.005c0 0-3.050 3.523-3.999 4.439-0.31 0.297-0.652 0.273-0.645-0.32 0-0.387 0.024-4.816 0.024-4.816-5.963-1.585-5.618-7.55-5.547-10.665s0.68-5.676 2.498-7.395c3.267-2.837 9.993-2.417 9.993-2.417 5.683 0.023 8.403 1.664 9.036 2.214 2.094 1.72 3.161 5.835 2.374 11.864zM19.528 13.184v0.017c-0.003 0.093-0.043 0.182-0.112 0.248s-0.162 0.104-0.259 0.106c-0.097 0.002-0.192-0.031-0.264-0.094s-0.117-0.149-0.124-0.243c0.026-0.25-0.006-0.504-0.092-0.742s-0.225-0.454-0.408-0.635c-0.182-0.181-0.403-0.322-0.648-0.413s-0.507-0.13-0.769-0.115h0.005c-0.097-0.007-0.188-0.050-0.253-0.119s-0.1-0.16-0.098-0.254c0.003-0.093 0.042-0.182 0.111-0.248s0.162-0.104 0.259-0.106h0.020l0.086-0.001c0.349-0 0.695 0.069 1.015 0.202s0.609 0.328 0.847 0.573 0.422 0.533 0.539 0.849c0.117 0.315 0.165 0.65 0.142 0.984v-0.007l0.001-0.001zM20.717 13.821c0.059-2.383-1.495-4.248-4.444-4.457-0.051-0.002-0.102-0.013-0.148-0.034s-0.088-0.050-0.122-0.086c-0.034-0.036-0.061-0.079-0.077-0.126s-0.023-0.096-0.020-0.144 0.018-0.097 0.041-0.14c0.023-0.044 0.056-0.082 0.095-0.114s0.085-0.055 0.134-0.069c0.049-0.014 0.101-0.019 0.151-0.013h0.020c0.7 0 1.393 0.137 2.035 0.403s1.222 0.655 1.702 1.143 0.851 1.065 1.090 1.696c0.239 0.63 0.341 1.301 0.3 1.971l0.001-0.013c-0.007 0.093-0.050 0.18-0.122 0.243s-0.166 0.098-0.263 0.096c-0.097-0.001-0.19-0.038-0.26-0.103s-0.111-0.153-0.115-0.246v-0.010l0.001 0.004zM23.469 14.575v0.002c-0.005 0.093-0.047 0.18-0.117 0.245s-0.163 0.1-0.261 0.101-0.191-0.035-0.262-0.098c-0.071-0.064-0.114-0.151-0.12-0.244-0.030-4.582-3.218-7.076-7.082-7.102-0.050 0-0.099-0.009-0.145-0.028s-0.088-0.045-0.123-0.079c-0.035-0.034-0.063-0.074-0.082-0.118s-0.029-0.091-0.029-0.139c0-0.048 0.010-0.095 0.029-0.139s0.047-0.084 0.082-0.118c0.035-0.034 0.077-0.061 0.123-0.079s0.095-0.028 0.145-0.028c4.327 0.029 7.804 2.89 7.839 7.822l0.002 0.001zM22.812 20.086v0.011c-0.633 1.068-1.818 2.248-3.037 1.871l-0.011-0.017c-2.174-0.767-4.212-1.85-6.043-3.211l0.051 0.036c-0.911-0.693-1.737-1.482-2.463-2.353l-0.024-0.030c-0.657-0.793-1.244-1.637-1.754-2.524l-0.050-0.095c-0.603-0.953-1.103-1.962-1.492-3.012l-0.038-0.118c-0.393-1.169 0.832-2.304 1.953-2.91h0.011c0.221-0.135 0.485-0.188 0.744-0.148s0.492 0.17 0.657 0.365l0.001 0.002c0 0 0.727 0.831 1.038 1.242 0.293 0.382 0.687 0.995 0.891 1.337 0.153 0.233 0.216 0.511 0.176 0.785s-0.179 0.524-0.393 0.709l-0.001 0.001-0.703 0.539c-0.11 0.101-0.194 0.225-0.248 0.361s-0.075 0.283-0.062 0.428v-0.004c0.348 1.112 0.976 2.124 1.829 2.948s1.904 1.434 3.062 1.776l0.052 0.013c0.151 0.011 0.303-0.009 0.445-0.060s0.27-0.132 0.376-0.236l0.563-0.674c0.193-0.206 0.457-0.34 0.743-0.377s0.578 0.024 0.822 0.172l-0.005-0.002c1.017 0.555 1.896 1.165 2.698 1.857l-0.014-0.012c0.203 0.155 0.339 0.378 0.38 0.624s-0.016 0.498-0.159 0.706l0.002-0.004 0.003 0.002z">
                </path>
            </symbol>

            <symbol id="icon-telegram" viewBox="0 0 32 32">
                <path
                    d="M30 3.481c-0.159-0.138-0.353-0.229-0.561-0.265s-0.421-0.014-0.617 0.063l-26.056 10.197c-0.369 0.144-0.682 0.403-0.891 0.74s-0.303 0.732-0.268 1.127c0.035 0.395 0.198 0.767 0.463 1.061s0.619 0.494 1.008 0.57l6.751 1.326v7.528c-0.001 0.41 0.12 0.811 0.35 1.151s0.555 0.603 0.936 0.756c0.38 0.155 0.798 0.192 1.2 0.107s0.768-0.29 1.052-0.586l3.255-3.376 5.165 4.521c0.373 0.33 0.853 0.513 1.351 0.514 0.218-0 0.435-0.034 0.643-0.102 0.339-0.108 0.645-0.302 0.885-0.565s0.408-0.583 0.487-0.931l5.219-22.703c0.047-0.205 0.037-0.418-0.029-0.618s-0.184-0.377-0.343-0.515zM22.139 8.11l-11.519 8.249-6.377-1.251 17.896-6.998zM11.886 25.828v-6.104l3.187 2.795-3.187 3.309zM23.14 26.857l-10.63-9.321 15.3-10.966-4.67 20.287z">
                </path>
            </symbol>

            <symbol id="icon-close" viewBox="0 0 32 32">
                <path
                    d="M28.467 3.532v0c0.689 0.689 0.689 1.805 0 2.493l-22.441 22.441c-0.689 0.689-1.805 0.689-2.493 0v0c-0.689-0.689-0.689-1.805 0-2.493l22.441-22.441c0.689-0.689 1.805-0.689 2.493 0z">
                </path>
                <path
                    d="M3.534 3.533v0c0.689-0.689 1.805-0.689 2.493 0l22.441 22.441c0.689 0.689 0.689 1.805 0 2.493v0c-0.689 0.689-1.805 0.689-2.493 0l-22.441-22.441c-0.689-0.689-0.689-1.805 0-2.493z">
                </path>
            </symbol>

            <symbol id="icon-arrow-up" viewBox="0 0 32 32">
                <path d="M16 1l-15 15h9v16h12v-16h9z"></path>
            </symbol>

        </defs>
    </svg>