<svg width="49" height="48" viewBox="0 0 49 48" fill="none" xmlns="http://www.w3.org/2000/svg">
<path d="M24.5 14V26" stroke="#121211" stroke-width="1.5" stroke-linecap="round"/>
<path d="M24.5 34C25.6046 34 26.5 33.1046 26.5 32C26.5 30.8954 25.6046 30 24.5 30C23.3954 30 22.5 30.8954 22.5 32C22.5 33.1046 23.3954 34 24.5 34Z" fill="#121211"/>
<path d="M16.186 7.604C20.244 5.202 22.272 4 24.5 4C26.728 4 28.756 5.2 32.814 7.604L34.186 8.416C38.244 10.82 40.272 12.022 41.386 14C42.5 15.98 42.5 18.38 42.5 23.188V24.812C42.5 29.618 42.5 32.022 41.386 34C40.272 35.98 38.244 37.18 34.186 39.582L32.814 40.396C28.756 42.798 26.728 44 24.5 44C22.272 44 20.244 42.8 16.186 40.396L14.814 39.582C10.756 37.182 8.728 35.978 7.614 34C6.5 32.02 6.5 29.62 6.5 24.812V23.188C6.5 18.38 6.5 15.978 7.614 14C8.728 12.02 10.756 10.82 14.814 8.416L16.186 7.604Z" stroke="#121211" stroke-width="1.5"/>
</svg>
