<svg width="49" height="48" viewBox="0 0 49 48" fill="none" xmlns="http://www.w3.org/2000/svg">
<path d="M44.406 24C44.406 25.182 43.714 26.248 42.728 27.22C42.138 27.8 41.45 28.356 40.844 28.92C40.36 29.37 39.924 29.812 39.72 30.304C39.506 30.818 39.492 31.456 39.51 32.13C39.532 32.962 39.622 33.84 39.628 34.66C39.64 36.042 39.382 37.268 38.576 38.076C37.768 38.882 36.542 39.14 35.16 39.128C34.34 39.12 33.462 39.032 32.632 39.01C31.958 38.992 31.318 39.006 30.804 39.22C30.312 39.424 29.87 39.86 29.42 40.344C28.856 40.95 28.3 41.638 27.72 42.226C26.748 43.214 25.682 43.906 24.5 43.906C23.318 43.906 22.252 43.214 21.28 42.226C20.7 41.638 20.144 40.95 19.58 40.344C19.13 39.86 18.686 39.424 18.196 39.22C17.682 39.006 17.042 38.992 16.37 39.01C15.538 39.032 14.66 39.12 13.84 39.128C12.458 39.14 11.23 38.882 10.424 38.076C9.61599 37.268 9.35999 36.042 9.37199 34.66C9.37799 33.84 9.46799 32.962 9.48999 32.13C9.50799 31.456 9.49399 30.818 9.27999 30.302C9.07599 29.812 8.63999 29.37 8.15599 28.92C7.55199 28.356 6.86399 27.8 6.27399 27.22C5.28799 26.248 4.59399 25.182 4.59399 24C4.59399 22.818 5.28799 21.752 6.27399 20.78C6.86399 20.2 7.55199 19.644 8.15599 19.08C8.63999 18.63 9.07599 18.188 9.27999 17.698C9.49399 17.182 9.50799 16.544 9.48999 15.87C9.46799 15.038 9.37799 14.16 9.37199 13.34C9.35999 11.958 9.61599 10.732 10.424 9.92399C11.23 9.11799 12.458 8.85999 13.84 8.87199C14.66 8.87999 15.538 8.96799 16.37 8.98999C17.042 9.00799 17.682 8.99399 18.196 8.77999C18.686 8.57599 19.13 8.13999 19.58 7.65599C20.144 7.04999 20.7 6.36199 21.28 5.77399C22.252 4.78599 23.318 4.09399 24.5 4.09399C25.682 4.09399 26.748 4.78599 27.72 5.77399C28.3 6.36199 28.856 7.04999 29.42 7.65599C29.87 8.13999 30.312 8.57599 30.804 8.77999C31.318 8.99399 31.958 9.00799 32.632 8.98999C33.462 8.96799 34.34 8.87999 35.16 8.87199C36.542 8.85999 37.768 9.11799 38.576 9.92399C39.382 10.732 39.64 11.958 39.628 13.34C39.622 14.16 39.532 15.038 39.51 15.87C39.492 16.544 39.506 17.182 39.72 17.696C39.924 18.188 40.36 18.63 40.844 19.08C41.45 19.644 42.138 20.2 42.728 20.78C43.714 21.752 44.406 22.818 44.406 24ZM42.406 24C42.406 23.624 42.23 23.29 41.994 22.964C41.666 22.512 41.218 22.09 40.75 21.672C39.584 20.63 38.34 19.592 37.872 18.464C37.388 17.294 37.518 15.666 37.6 14.108C37.634 13.478 37.654 12.864 37.57 12.318C37.512 11.936 37.41 11.588 37.162 11.34C36.912 11.09 36.564 10.988 36.182 10.93C35.636 10.846 35.022 10.866 34.392 10.9C32.834 10.982 31.206 11.112 30.038 10.628C28.908 10.16 27.87 8.91799 26.828 7.74999C26.41 7.28199 25.988 6.83399 25.536 6.50599C25.21 6.26999 24.876 6.09399 24.5 6.09399C24.126 6.09399 23.79 6.26999 23.464 6.50599C23.012 6.83399 22.59 7.28199 22.172 7.74999C21.13 8.91799 20.092 10.16 18.962 10.628C17.794 11.112 16.166 10.982 14.608 10.9C13.978 10.866 13.364 10.846 12.818 10.93C12.434 10.988 12.088 11.09 11.838 11.34C11.588 11.588 11.488 11.936 11.43 12.318C11.346 12.864 11.366 13.478 11.398 14.108C11.482 15.666 11.612 17.294 11.128 18.462C10.66 19.592 9.41799 20.63 8.24999 21.672C7.78199 22.09 7.33399 22.512 7.00599 22.964C6.76999 23.29 6.59399 23.624 6.59399 24C6.59399 24.376 6.76999 24.71 7.00599 25.036C7.33399 25.488 7.78199 25.91 8.24999 26.328C9.41799 27.37 10.66 28.408 11.128 29.538C11.612 30.706 11.482 32.334 11.398 33.892C11.366 34.522 11.346 35.136 11.43 35.682C11.488 36.064 11.588 36.412 11.838 36.66C12.088 36.91 12.434 37.012 12.818 37.07C13.364 37.154 13.978 37.134 14.608 37.1C16.166 37.018 17.794 36.888 18.962 37.372C20.092 37.84 21.13 39.082 22.172 40.25C22.59 40.718 23.012 41.166 23.464 41.494C23.79 41.73 24.126 41.906 24.5 41.906C24.876 41.906 25.21 41.73 25.536 41.494C25.988 41.166 26.41 40.718 26.828 40.25C27.87 39.082 28.908 37.84 30.038 37.372C31.206 36.888 32.834 37.018 34.392 37.1C35.022 37.134 35.636 37.154 36.182 37.07C36.564 37.012 36.912 36.91 37.162 36.66C37.41 36.412 37.512 36.064 37.57 35.682C37.654 35.136 37.634 34.522 37.6 33.892C37.518 32.334 37.388 30.706 37.872 29.536C38.34 28.408 39.584 27.37 40.75 26.328C41.218 25.91 41.666 25.488 41.994 25.036C42.23 24.71 42.406 24.376 42.406 24ZM21.344 20.476C21.1554 20.6644 20.9316 20.8139 20.6852 20.9158C20.4389 21.0178 20.1749 21.0702 19.9083 21.0701C19.6417 21.07 19.3777 21.0174 19.1315 20.9153C18.8852 20.8132 18.6614 20.6636 18.473 20.475C18.2845 20.2864 18.1351 20.0626 18.0332 19.8162C17.9312 19.5699 17.8788 19.3059 17.8789 19.0393C17.879 18.7727 17.9316 18.5087 18.0337 18.2625C18.1358 18.0162 18.2854 17.7924 18.474 17.604C18.8548 17.2234 19.3713 17.0097 19.9097 17.0099C20.4481 17.0101 20.9644 17.2241 21.345 17.605C21.7256 17.9858 21.9393 18.5023 21.9391 19.0407C21.9389 19.5791 21.7248 20.0954 21.344 20.476ZM30.286 16.8C30.4746 16.6178 30.7272 16.517 30.9894 16.5193C31.2516 16.5216 31.5024 16.6268 31.6878 16.8122C31.8732 16.9976 31.9784 17.2484 31.9807 17.5106C31.9829 17.7728 31.8822 18.0254 31.7 18.214L18.714 31.2C18.5254 31.3822 18.2728 31.4829 18.0106 31.4807C17.7484 31.4784 17.4976 31.3732 17.3122 31.1878C17.1268 31.0024 17.0216 30.7516 17.0193 30.4894C17.017 30.2272 17.1178 29.9746 17.3 29.786L30.286 16.8ZM27.656 27.526C27.8446 27.3375 28.0684 27.1881 28.3148 27.0862C28.5611 26.9842 28.8251 26.9318 29.0917 26.9319C29.3583 26.932 29.6223 26.9846 29.8685 27.0867C30.1148 27.1888 30.3385 27.3384 30.527 27.527C30.7154 27.7156 30.8649 27.9394 30.9668 28.1858C31.0688 28.4321 31.1212 28.6961 31.1211 28.9627C31.121 29.2293 31.0684 29.4933 30.9663 29.7395C30.8642 29.9858 30.7146 30.2095 30.526 30.398C30.1451 30.7786 29.6287 30.9923 29.0903 30.9921C28.5519 30.9919 28.0356 30.7778 27.655 30.397C27.2744 30.0161 27.0607 29.4997 27.0609 28.9613C27.0611 28.4229 27.2751 27.9066 27.656 27.526Z" fill="#121211"/>
</svg>
