<svg width="155" height="38" viewBox="0 0 155 38" fill="none" xmlns="http://www.w3.org/2000/svg">
<path d="M138.46 30V9.84H146.426C146.622 9.84 146.855 9.84933 147.126 9.868C147.397 9.87733 147.658 9.90533 147.91 9.952C149.002 10.12 149.917 10.4933 150.654 11.072C151.401 11.6507 151.961 12.3833 152.334 13.27C152.707 14.1473 152.894 15.1227 152.894 16.196C152.894 17.26 152.703 18.2353 152.32 19.122C151.947 19.9993 151.387 20.732 150.64 21.32C149.903 21.8987 148.993 22.272 147.91 22.44C147.658 22.4773 147.397 22.5053 147.126 22.524C146.855 22.5427 146.622 22.552 146.426 22.552H140.952V30H138.46ZM140.952 20.186H146.342C146.519 20.186 146.72 20.1767 146.944 20.158C147.177 20.1393 147.397 20.1067 147.602 20.06C148.246 19.9107 148.769 19.64 149.17 19.248C149.581 18.8467 149.879 18.38 150.066 17.848C150.253 17.3067 150.346 16.756 150.346 16.196C150.346 15.636 150.253 15.09 150.066 14.558C149.879 14.0167 149.581 13.5453 149.17 13.144C148.769 12.7427 148.246 12.472 147.602 12.332C147.397 12.276 147.177 12.2433 146.944 12.234C146.72 12.2153 146.519 12.206 146.342 12.206H140.952V20.186Z" fill="#F9CB38"/>
<path d="M75.98 30L81.764 12.72H84.74L90.524 30H88.304L82.892 13.968H83.564L78.2 30H75.98ZM78.764 25.956V23.952H87.74V25.956H78.764ZM98.1462 30V12.206H91.2722V9.84H107.512V12.206H100.638V30H98.1462Z" fill="#F9CB38"/>
<path d="M2.18 30V12.72H13.1V14.748H4.316V20.16H11.66V22.188H4.316V27.972H13.1V30H2.18ZM15.9847 30V12.72H22.7167C23.7487 12.72 24.6287 12.932 25.3567 13.356C26.0927 13.78 26.6527 14.34 27.0367 15.036C27.4287 15.724 27.6247 16.468 27.6247 17.268C27.6247 18.204 27.3847 19.024 26.9047 19.728C26.4247 20.432 25.7767 20.916 24.9607 21.18L24.9367 20.592C26.0487 20.888 26.9127 21.432 27.5287 22.224C28.1447 23.016 28.4527 23.96 28.4527 25.056C28.4527 26.064 28.2447 26.936 27.8287 27.672C27.4207 28.408 26.8287 28.98 26.0527 29.388C25.2847 29.796 24.3727 30 23.3167 30H15.9847ZM18.1447 27.96H22.9087C23.5487 27.96 24.1207 27.844 24.6247 27.612C25.1287 27.372 25.5247 27.036 25.8127 26.604C26.1087 26.172 26.2567 25.652 26.2567 25.044C26.2567 24.46 26.1247 23.936 25.8607 23.472C25.6047 23.008 25.2407 22.64 24.7687 22.368C24.3047 22.088 23.7647 21.948 23.1487 21.948H18.1447V27.96ZM18.1447 19.932H22.6927C23.2047 19.932 23.6647 19.824 24.0727 19.608C24.4887 19.384 24.8167 19.072 25.0567 18.672C25.3047 18.272 25.4287 17.804 25.4287 17.268C25.4287 16.524 25.1767 15.916 24.6727 15.444C24.1687 14.972 23.5087 14.736 22.6927 14.736H18.1447V19.932ZM29.6441 30L35.4281 12.72H38.4041L44.1881 30H41.9681L36.5561 13.968H37.2281L31.8641 30H29.6441ZM32.4281 25.956V23.952H41.4041V25.956H32.4281ZM46.3363 30V12.72H48.4723V20.832L56.0323 12.72H58.7203L50.8723 21.108L59.3323 30H56.5723L48.4723 21.552V30H46.3363Z" fill="#F9CB38"/>
<path fill-rule="evenodd" clip-rule="evenodd" d="M76.4996 14.2231L74.2344 13.2402L70.9156 22.2445L61.6068 13.3664L60.4812 14.5877L69.8781 25.0592L65.8078 36.1025L68.073 37.0854L76.4996 14.2231ZM60.1658 20.7803V15.8373L61.187 17.0069V20.2201C61.802 20.731 62.1804 21.3281 62.2967 21.9437C62.4284 22.6331 62.236 23.3102 61.8627 23.7965C61.1172 24.763 59.5882 25.0092 58.5 23.8335L59.2217 23.0456C59.949 23.8396 60.6894 23.5934 61.0786 23.0825C61.2727 22.8301 61.364 22.5223 61.2971 22.1653C61.2295 21.8144 60.9924 21.3774 60.3933 20.9465L60.1658 20.7803Z" fill="#121211"/>
<circle cx="121.5" cy="20" r="9.5" stroke="#121211" stroke-width="5"/>
</svg>
