<svg width="100" height="100" viewBox="0 0 100 100" fill="none" xmlns="http://www.w3.org/2000/svg">
<path d="M0 50C0 22.3858 22.3858 0 50 0C77.6142 0 100 22.3858 100 50C100 77.6142 77.6142 100 50 100C22.3858 100 0 77.6142 0 50Z" fill="#00AEEF"/>
<path d="M74.7203 69.8V62.3C74.7507 61.0739 74.3295 59.8795 73.5366 58.9437C72.7438 58.008 71.6347 57.3963 70.4203 57.225C68.0201 56.9084 65.6635 56.3214 63.3953 55.475C62.5005 55.1386 61.528 55.0658 60.5931 55.2652C59.6582 55.4646 58.8 55.9278 58.1203 56.6L54.9453 59.775C48.6864 56.2161 43.5042 51.0339 39.9453 44.775L43.1203 41.6C43.7924 40.9203 44.2557 40.0621 44.4551 39.1272C44.6544 38.1923 44.5816 37.2198 44.2453 36.325C43.3989 34.0568 42.8118 31.7002 42.4953 29.3C42.3255 28.0986 41.7246 27 40.8047 26.2088C39.8848 25.4177 38.7086 24.9881 37.4953 25H29.9953C29.3011 25.0007 28.6147 25.1458 27.9798 25.4263C27.3448 25.7068 26.7752 26.1164 26.3072 26.6291C25.8392 27.1417 25.4831 27.7462 25.2615 28.4041C25.04 29.0619 24.9578 29.7587 25.0203 30.45C25.8409 38.1775 28.4702 45.603 32.6953 52.125C36.5336 58.1654 41.6549 63.2867 47.6953 67.125C54.1878 71.3354 61.5774 73.9641 69.2703 74.8C69.9637 74.8627 70.6626 74.7798 71.3222 74.5568C71.9817 74.3337 72.5874 73.9753 73.1005 73.5047C73.6135 73.034 74.0226 72.4613 74.3016 71.8234C74.5805 71.1854 74.7231 70.4963 74.7203 69.8Z" stroke="#121211" stroke-width="2" stroke-linecap="round" stroke-linejoin="round"/>
</svg>
