<svg width="49" height="48" viewBox="0 0 49 48" fill="none" xmlns="http://www.w3.org/2000/svg">
<path d="M9.95622 32.274C6.86622 29.182 5.32022 27.638 4.74622 25.632C4.17022 23.626 4.66222 21.496 5.64622 17.238L6.21222 14.782C7.03822 11.198 7.45222 9.406 8.67822 8.178C9.90622 6.952 11.6982 6.538 15.2822 5.712L17.7382 5.144C21.9982 4.162 24.1262 3.67 26.1322 4.244C28.1382 4.82 29.6822 6.366 32.7722 9.456L36.4322 13.116C41.8142 18.496 44.5002 21.184 44.5002 24.524C44.5002 27.866 41.8102 30.554 36.4322 35.932C31.0542 41.314 28.3662 44 25.0242 44C21.6842 44 18.9942 41.31 13.6162 35.932L9.95622 32.274Z" stroke="#121211" stroke-width="1.5"/>
<path d="M31.2803 30.7799C32.4503 29.6059 32.6083 27.8659 31.6323 26.8879C30.6563 25.9119 28.9143 26.0699 27.7423 27.2419C26.5723 28.4139 24.8303 28.5719 23.8543 27.5959C22.8783 26.6199 23.0363 24.8779 24.2083 23.7079M24.2083 23.7079L23.5003 22.9999M24.2083 23.7079C24.8703 23.0439 25.7143 22.7079 26.5003 22.7139M31.9863 31.4859L31.2783 30.7779C30.4783 31.5799 29.4083 31.9079 28.5003 31.7199" stroke="#121211" stroke-width="1.5" stroke-linecap="round"/>
<path d="M20.5424 20.5865C22.1045 19.0244 22.1045 16.4917 20.5424 14.9296C18.9803 13.3675 16.4477 13.3675 14.8856 14.9296C13.3235 16.4917 13.3235 19.0244 14.8856 20.5865C16.4477 22.1486 18.9803 22.1486 20.5424 20.5865Z" stroke="#121211" stroke-width="1.5"/>
</svg>
